PathFileType	4	(X/Y/Z)	 control3min.trc
DataRate	CameraRate	NumFrames	NumMarkers	Units	OrigDataRate	OrigDataStartFrame	OrigNumFrames
200	200	9	35	m	200	501	1000
Frame#	Time	C7			LSH			RSH			MAN			RASI			LASI			HIPR			HIPL			RPSI			LPSI			COX			RTHI1			RTHI2			RTHI3			RTHI4			RSHA1			RSHA2			RSHA3			RSHA4			RHEEL			RMET5			RMET1			RTOE			LTHI1			LTHI2			LTHI3			LTHI4			LSHA1			LSHA2			LSHA3			LSHA4			LHEEL			LMET5			LMET1			LTOE			
		X1	Y1	Z1	X2	Y2	Z2	X3	Y3	Z3	X4	Y4	Z4	X5	Y5	Z5	X6	Y6	Z6	X7	Y7	Z7	X8	Y8	Z8	X9	Y9	Z9	X10	Y10	Z10	X11	Y11	Z11	X12	Y12	Z12	X13	Y13	Z13	X14	Y14	Z14	X15	Y15	Z15	X16	Y16	Z16	X17	Y17	Z17	X18	Y18	Z18	X19	Y19	Z19	X20	Y20	Z20	X21	Y21	Z21	X22	Y22	Z22	X23	Y23	Z23	X24	Y24	Z24	X25	Y25	Z25	X26	Y26	Z26	X27	Y27	Z27	X28	Y28	Z28	X29	Y29	Z29	X30	Y30	Z30	X31	Y31	Z31	X32	Y32	Z32	X33	Y33	Z33	X34	Y34	Z34	X35	Y35	Z35	
501	2.5050	-0.000000	0.000000	-0.000000	-0.146338	1.363196	-0.730270	-0.156698	1.330991	-0.379006	-0.088753	1.317150	-0.555763	-0.096685	0.924327	-0.439503	-0.088790	0.927984	-0.676899	-0.151514	0.968460	-0.415900	-0.146769	0.968568	-0.702085	-0.256355	0.954013	-0.504165	-0.249985	0.956187	-0.617384	-0.257910	0.959319	-0.560494	-0.193062	0.715359	-0.399513	-0.165171	0.663079	-0.390768	-0.110118	0.690575	-0.371293	-0.130896	0.748398	-0.377594	-0.197250	0.320897	-0.380348	-0.213081	0.282418	-0.391639	-0.155032	0.265333	-0.388607	-0.142970	0.303360	-0.382238	-0.305625	0.091911	-0.448444	-0.165584	0.029483	-0.376226	-0.132327	0.037691	-0.442127	-0.103441	0.027999	-0.438179	-0.158197	0.732275	-0.735710	-0.136915	0.674538	-0.731270	-0.074999	0.692149	-0.721038	-0.088752	0.750185	-0.725170	-0.200555	0.319147	-0.720348	-0.220701	0.284293	-0.718144	-0.163418	0.260043	-0.708266	-0.150130	0.302003	-0.712570	-0.329167	0.074709	-0.667632	-0.182895	0.031116	-0.722831	-0.143457	0.036540	-0.656347	-0.118264	0.027859	-0.658932	
502	2.5100	-0.000000	0.000000	-0.000000	-0.146386	1.368861	-0.730182	-0.157119	1.336718	-0.379287	-0.089006	1.322640	-0.555899	-0.095991	0.929612	-0.439602	-0.088187	0.933014	-0.676590	-0.150646	0.974067	-0.415930	-0.146059	0.974008	-0.701808	-0.255511	0.959352	-0.504046	-0.249236	0.961495	-0.617265	-0.257198	0.964470	-0.560390	-0.193223	0.720607	-0.398746	-0.165594	0.668150	-0.390105	-0.110164	0.695371	-0.371293	-0.130636	0.753300	-0.377570	-0.198616	0.324622	-0.380078	-0.214149	0.285922	-0.391236	-0.155983	0.269326	-0.387975	-0.144217	0.307462	-0.381686	-0.304458	0.094862	-0.447775	-0.165156	0.029734	-0.376284	-0.132143	0.037680	-0.442039	-0.103501	0.028017	-0.438257	-0.157905	0.737642	-0.736259	-0.136938	0.679777	-0.731770	-0.075015	0.697061	-0.721035	-0.088465	0.755183	-0.725075	-0.201836	0.323420	-0.721129	-0.221674	0.288379	-0.718894	-0.164135	0.264604	-0.709339	-0.151228	0.306682	-0.713629	-0.327776	0.078363	-0.668238	-0.182372	0.031514	-0.722725	-0.143304	0.036519	-0.656345	-0.118274	0.027858	-0.658884	
503	2.5150	-0.000000	0.000000	-0.000000	-0.146423	1.374612	-0.730050	-0.157639	1.342577	-0.379590	-0.089315	1.328252	-0.556015	-0.095322	0.935011	-0.439702	-0.087578	0.938131	-0.676239	-0.149748	0.979851	-0.415960	-0.145233	0.979624	-0.701508	-0.254653	0.964828	-0.503947	-0.248477	0.966956	-0.617177	-0.256467	0.969767	-0.560300	-0.193337	0.725949	-0.397901	-0.165965	0.673322	-0.389378	-0.110160	0.700286	-0.371233	-0.130336	0.758297	-0.377509	-0.199972	0.328435	-0.379735	-0.215214	0.289514	-0.390783	-0.156922	0.273415	-0.387240	-0.145472	0.311670	-0.381027	-0.303222	0.097928	-0.447120	-0.164687	0.030006	-0.376326	-0.131940	0.037692	-0.441944	-0.103563	0.028038	-0.438333	-0.157776	0.743128	-0.736773	-0.137106	0.685142	-0.732311	-0.075160	0.702105	-0.721187	-0.088326	0.760307	-0.725079	-0.203011	0.327797	-0.721999	-0.222537	0.292570	-0.719711	-0.164745	0.269270	-0.710496	-0.152225	0.311461	-0.714785	-0.326229	0.082138	-0.668857	-0.181792	0.031936	-0.722665	-0.143143	0.036501	-0.656355	-0.118286	0.027861	-0.658848	
504	2.5200	-0.000000	0.000000	-0.000000	-0.146446	1.380401	-0.729870	-0.158223	1.348530	-0.379950	-0.089655	1.333991	-0.556106	-0.094680	0.940474	-0.439822	-0.086972	0.943298	-0.675862	-0.148815	0.985753	-0.416004	-0.144303	0.985372	-0.701192	-0.253775	0.970398	-0.503864	-0.247706	0.972532	-0.617105	-0.255715	0.975178	-0.560214	-0.193412	0.731337	-0.396993	-0.166290	0.678579	-0.388580	-0.110120	0.705266	-0.371127	-0.130013	0.763366	-0.377416	-0.201340	0.332262	-0.379351	-0.216262	0.293161	-0.390302	-0.157843	0.277564	-0.386405	-0.146718	0.315936	-0.380277	-0.301902	0.101083	-0.446452	-0.164184	0.030294	-0.376349	-0.131727	0.037720	-0.441842	-0.103630	0.028063	-0.438406	-0.157819	0.748699	-0.737242	-0.137421	0.690589	-0.732884	-0.075435	0.707244	-0.721496	-0.088344	0.765523	-0.725190	-0.204103	0.332209	-0.722938	-0.223311	0.296802	-0.720579	-0.165265	0.273985	-0.711727	-0.153137	0.316287	-0.716029	-0.324533	0.085995	-0.669486	-0.181161	0.032370	-0.722661	-0.142973	0.036489	-0.656376	-0.118303	0.027868	-0.658827	
505	2.5250	-0.000000	0.000000	-0.000000	-0.146457	1.386186	-0.729644	-0.158849	1.354549	-0.380354	-0.090025	1.339815	-0.556171	-0.094066	0.945948	-0.439970	-0.086378	0.948487	-0.675468	-0.147851	0.991702	-0.416064	-0.143285	0.991190	-0.700873	-0.252891	0.976020	-0.503779	-0.246935	0.978195	-0.617039	-0.254936	0.980673	-0.560127	-0.193468	0.736751	-0.396061	-0.166575	0.683878	-0.387745	-0.110065	0.710288	-0.370985	-0.129690	0.768474	-0.377300	-0.202683	0.336081	-0.378853	-0.217282	0.296843	-0.389728	-0.158727	0.281733	-0.385492	-0.147940	0.320241	-0.379423	-0.300473	0.104264	-0.445720	-0.163657	0.030593	-0.376351	-0.131506	0.037754	-0.441729	-0.103704	0.028087	-0.438470	-0.158034	0.754315	-0.737656	-0.137884	0.696100	-0.733482	-0.075841	0.712459	-0.721967	-0.088511	0.770801	-0.725409	-0.205144	0.336599	-0.723930	-0.224015	0.301016	-0.721477	-0.165703	0.278704	-0.713011	-0.153986	0.321127	-0.717349	-0.322691	0.089900	-0.670123	-0.180489	0.032812	-0.722719	-0.142784	0.036489	-0.656403	-0.118325	0.027881	-0.658821	
506	2.5300	-0.000000	0.000000	-0.000000	-0.146453	1.391927	-0.729371	-0.159507	1.360602	-0.380752	-0.090421	1.345685	-0.556214	-0.093490	0.951376	-0.440147	-0.085805	0.953658	-0.675074	-0.146923	0.997623	-0.416181	-0.142222	0.997018	-0.700554	-0.252007	0.981660	-0.503681	-0.246169	0.983902	-0.616970	-0.254138	0.986214	-0.560042	-0.193518	0.742153	-0.395120	-0.166839	0.689162	-0.386901	-0.110014	0.715332	-0.370820	-0.129389	0.773583	-0.377167	-0.204000	0.339873	-0.378313	-0.218266	0.300514	-0.389105	-0.159560	0.285916	-0.384522	-0.149120	0.324551	-0.378479	-0.298931	0.107438	-0.444926	-0.163108	0.030902	-0.376336	-0.131275	0.037796	-0.441602	-0.103786	0.028109	-0.438519	-0.158409	0.759944	-0.738000	-0.138481	0.701638	-0.734094	-0.076367	0.717707	-0.722574	-0.088810	0.776112	-0.725742	-0.206146	0.340936	-0.724942	-0.224659	0.305176	-0.722372	-0.166073	0.283402	-0.714335	-0.154791	0.325930	-0.718723	-0.320713	0.093825	-0.670765	-0.179782	0.033253	-0.722840	-0.142566	0.036508	-0.656429	-0.118347	0.027902	-0.658834	
507	2.5350	-0.000000	0.000000	-0.000000	-0.146445	1.397588	-0.729059	-0.160179	1.366626	-0.381168	-0.090837	1.351558	-0.556235	-0.092955	0.956712	-0.440355	-0.085262	0.958788	-0.674698	-0.146025	1.003449	-0.416353	-0.141144	1.002798	-0.700243	-0.251114	0.987286	-0.503586	-0.245408	0.989611	-0.616904	-0.253327	0.991760	-0.559942	-0.193575	0.747504	-0.394194	-0.167098	0.694423	-0.386047	-0.109977	0.720363	-0.370639	-0.129128	0.778666	-0.377031	-0.205284	0.343594	-0.377768	-0.219209	0.304156	-0.388437	-0.160338	0.290081	-0.383519	-0.150247	0.328836	-0.377486	-0.297276	0.110604	-0.444114	-0.162538	0.031223	-0.376305	-0.131029	0.037845	-0.441460	-0.103874	0.028132	-0.438547	-0.158927	0.765556	-0.738271	-0.139198	0.707174	-0.734702	-0.076997	0.722966	-0.723298	-0.089229	0.781419	-0.726181	-0.207122	0.345195	-0.725946	-0.225254	0.309243	-0.723241	-0.166392	0.288040	-0.715681	-0.155564	0.330673	-0.720132	-0.318611	0.097731	-0.671409	-0.179046	0.033685	-0.723015	-0.142312	0.036556	-0.656451	-0.118369	0.027932	-0.658871	
508	2.5400	-0.000000	0.000000	-0.000000	-0.146432	1.403136	-0.728714	-0.160841	1.372573	-0.381607	-0.091267	1.357395	-0.556234	-0.092460	0.961921	-0.440595	-0.084754	0.963838	-0.674352	-0.145185	1.009150	-0.416566	-0.140082	1.008487	-0.699958	-0.250219	0.992861	-0.503483	-0.244649	0.995287	-0.616833	-0.252509	0.997276	-0.559835	-0.193649	0.752790	-0.393309	-0.167358	0.699629	-0.385155	-0.109968	0.725344	-0.370452	-0.128908	0.783703	-0.376896	-0.206523	0.347238	-0.377209	-0.220099	0.307723	-0.387777	-0.161056	0.294206	-0.382500	-0.151304	0.333073	-0.376464	-0.295485	0.113745	-0.443276	-0.161962	0.031552	-0.376262	-0.130762	0.037903	-0.441299	-0.103964	0.028157	-0.438542	-0.159564	0.771125	-0.738478	-0.140014	0.712679	-0.735297	-0.077711	0.728210	-0.724113	-0.089749	0.786703	-0.726705	-0.208074	0.349340	-0.726915	-0.225802	0.313205	-0.724069	-0.166658	0.292611	-0.717034	-0.156310	0.335339	-0.721552	-0.316383	0.101601	-0.672054	-0.178280	0.034113	-0.723233	-0.142014	0.036642	-0.656466	-0.118388	0.027976	-0.658943	
509	2.5450	-0.000000	0.000000	-0.000000	-0.146423	1.408543	-0.728345	-0.161482	1.378411	-0.382040	-0.091745	1.363077	-0.556230	-0.092006	0.966973	-0.440866	-0.084286	0.968787	-0.674049	-0.144408	1.014665	-0.416805	-0.139058	1.014038	-0.699706	-0.249334	0.998364	-0.503361	-0.243903	1.000903	-0.616756	-0.251678	1.002732	-0.559730	-0.193749	0.757980	-0.392480	-0.167629	0.704729	-0.384307	-0.109996	0.730251	-0.370259	-0.128731	0.788657	-0.376731	-0.207689	0.350809	-0.376627	-0.220932	0.311179	-0.387076	-0.161706	0.298271	-0.381491	-0.152291	0.337252	-0.375444	-0.293562	0.116832	-0.442387	-0.161367	0.031898	-0.376217	-0.130456	0.037995	-0.441109	-0.104050	0.028192	-0.438492	-0.160294	0.776618	-0.738619	-0.140905	0.718130	-0.735869	-0.078489	0.733412	-0.725004	-0.090347	0.791935	-0.727293	-0.208995	0.353363	-0.727825	-0.226296	0.317044	-0.724828	-0.166868	0.297083	-0.718361	-0.157022	0.339910	-0.722952	-0.314043	0.105414	-0.672700	-0.177479	0.034545	-0.723472	-0.141676	0.036766	-0.656482	-0.118411	0.028039	-0.659065	
